# xmcd CD database file
#
# Track frame offsets:
#	150
#	36947
#	55554
#	91262
#	115180
#	134492
#	152940
#	180290
#	216453
#	260566
#
# Disc length: 3800 seconds
#
# Revision: 0
# Processed by: cddbd v1.5.2PL0 Copyright (c) Steve Scherf et al.
# Submitted via: CDex 1.51
#
DISCID=890ed60a
DTITLE=Big Jack Johnson - Big Jack's Way
DYEAR=2010
DGENRE=Blues
TTITLE0=Chicago Catfish
TTITLE1=Mr. Rooster
TTITLE2=Ellis
TTITLE3=Key West
TTITLE4=Mae Buffalo
TTITLE5=Tom Dooley
TTITLE6=Happy Birthday Jesus
TTITLE7=Since I Met You
TTITLE8=Vampire Woman
TTITLE9=Goodbye Michael Jackson
EXTD=YEAR: 2010
EXTT0=
EXTT1=
EXTT2=
EXTT3=
EXTT4=
EXTT5=
EXTT6=
EXTT7=
EXTT8=
EXTT9=
PLAYORDER=
